<svg width="29" height="29" viewBox="0 0 29 29" fill="none" xmlns="http://www.w3.org/2000/svg">
<path fill-rule="evenodd" clip-rule="evenodd" d="M13.475 0C5.94519 0.525847 0 6.8008 0 14.4643C0 22.1279 5.94519 28.4028 13.475 28.9287V25.255C7.96979 24.7386 3.66149 20.1046 3.66149 14.4644C3.66149 8.82416 7.96979 4.19018 13.475 3.67384V0ZM15.5255 25.2549C21.0304 24.7382 25.3383 20.1044 25.3383 14.4644C25.3383 8.82444 21.0304 4.19063 15.5255 3.67392V3.8368e-05C23.0551 0.526152 29 6.80099 29 14.4643C29 22.1277 23.0551 28.4025 15.5255 28.9286V25.2549Z" fill="#F6D55C"/>
<rect x="10.1064" y="11.9744" width="3.36869" height="14.7929" fill="#F6D55C"/>
<rect x="7.7627" y="15.3431" width="3.36869" height="5.71212" transform="rotate(-90 7.7627 15.3431)" fill="#F6D55C"/>
<rect x="15.5254" y="11.9744" width="3.36869" height="14.7929" fill="#F6D55C"/>
<circle cx="17.2097" cy="9.26485" r="1.68434" fill="#ED553B"/>
</svg>
